<svg fill="none" height="40" viewBox="0 0 28 40" width="28" xmlns="http://www.w3.org/2000/svg"><path d="m7.33854 40c1.76811 0 3.46376-.7024 4.71406-1.9527 1.2502-1.2502 1.9526-2.9459 1.9526-4.714v-6.6667h-6.66666c-1.76811 0-3.4638.7024-4.71404 1.9526-1.25025 1.2503-1.952625 2.946-1.952625 4.7141s.702375 3.4638 1.952625 4.714c1.25024 1.2503 2.94593 1.9527 4.71404 1.9527z" fill="#0acf83"/><path d="m.671875 20c0-1.7681.702375-3.4638 1.952625-4.714 1.25024-1.2502 2.94593-1.9526 4.71404-1.9526h6.66666v13.3333h-6.66666c-1.76811 0-3.4638-.7024-4.71404-1.9526-1.25025-1.2503-1.952625-2.9459-1.952625-4.7141z" fill="#a259ff"/><path d="m.671875 6.66667c-.000001-1.76721.701665-3.46212 1.950775-4.71221 1.24912-1.250091 2.94348-1.95307937 4.71068-1.95446h6.66667v13.3333h-6.66146c-1.76811 0-3.4638-.7023-4.71404-1.9526-1.25025-1.2502-1.952625-2.94592-1.952625-4.71403z" fill="#f24e1e"/><path d="m14.0054 0h6.6666c1.7681 0 3.4638.702379 4.7141 1.95262 1.2502 1.25024 1.9526 2.94594 1.9526 4.71405s-.7024 3.46383-1.9526 4.71403c-1.2503 1.2503-2.946 1.9526-4.7141 1.9526h-6.6666z" fill="#ff7262"/><path d="m27.3387 20c0 1.7681-.7024 3.4638-1.9526 4.7141-1.2503 1.2502-2.946 1.9526-4.7141 1.9526s-3.4638-.7024-4.714-1.9526c-1.2502-1.2503-1.9526-2.946-1.9526-4.7141s.7024-3.4638 1.9526-4.714 2.9459-1.9526 4.714-1.9526 3.4638.7024 4.7141 1.9526c1.2502 1.2502 1.9526 2.9459 1.9526 4.714z" fill="#1abcfe"/></svg>