<svg fill="none" height="41" viewBox="0 0 41 41" width="41" xmlns="http://www.w3.org/2000/svg"><path d="m0 20.0012v20h40.0012v-40.0012h-40.0012zm32.2356-1.5937c1.0156.2538 1.7907.705 2.5019 1.4413.3688.3937.9144 1.1112.9587 1.2824.0125.05-1.7268 1.2188-2.7812 1.8732-.0375.025-.1906-.1394-.3625-.3938-.5144-.75-1.0538-1.0731-1.8794-1.13-1.2125-.0825-2 .5525-1.9875 1.6125 0 .3113.0438.495.1713.75.2669.5525.7625.8825 2.3175 1.5563 2.8637 1.2312 4.0887 2.0437 4.85 3.2.85 1.2887 1.0412 3.3462.4637 4.8762-.635 1.6638-2.2094 2.7938-4.425 3.1688-.6856.1206-2.3112.1018-3.0475-.0313-1.6062-.2856-3.13-1.0794-4.07-2.1206-.3687-.4063-1.0856-1.4669-1.0412-1.5438.0187-.025.1844-.1268.3687-.235l1.4857-.8562 1.15-.6669.2412.3563c.3362.5143 1.0731 1.2187 1.5175 1.4537 1.2763.6731 3.0288.5775 3.8919-.1968.3687-.3363.5206-.6857.5206-1.2001 0-.4637-.0562-.6668-.2981-1.0156-.3113-.4437-.9463-.8187-2.75-1.6-2.0638-.8887-2.9525-1.4412-3.765-2.3175-.47-.5081-.9144-1.3206-1.0988-2-.1525-.565-.1906-1.9812-.07-2.5525.425-2 1.93-3.3843 4.1019-3.7968.705-.1332 2.3438-.0825 3.035.0887zm-9.3906 1.6687.0125 1.6376h-5.2062v14.7937h-3.6825v-14.7937h-5.2063v-1.6063l.04375-1.65c.01875-.025 3.18755-.0375 7.02875-.0312l6.9906.0187z" fill="#007acc"/></svg>