<svg fill="none" height="31" viewBox="0 0 30 31" width="30" xmlns="http://www.w3.org/2000/svg" xmlns:xlink="http://www.w3.org/1999/xlink"><clipPath id="a"><path d="m0 0h30v30.6383h-30z"/></clipPath><g clip-path="url(#a)" clip-rule="evenodd" fill-rule="evenodd"><path d="m6.27259 15.3192c0-.973.16159-1.9057.45-2.7806l-5.04818-3.85501c-.983861 1.99761-1.53818 4.24851-1.53818 6.63561 0 2.385.553637 4.6345 1.53614 6.6308l5.04545-3.8625c-.28568-.8708-.44523-1.8002-.44523-2.7683z" fill="#fbbc05"/><path d="m15.1361 6.46799c2.1137 0 4.0228.74894 5.5228 1.97447l4.3636-4.35745c-2.6591-2.31489-6.0682-3.744678-9.8864-3.744678-5.92769 0-11.02224 3.389958-13.46178 8.343148l5.04818 3.85502c1.16318-3.53093 4.4789-6.07051 8.4136-6.07051z" fill="#eb4335"/><path d="m15.1361 24.1701c-3.9347 0-7.25042-2.5396-8.4136-6.0705l-5.04818 3.8543c2.43954 4.9539 7.53409 8.3438 13.46178 8.3438 3.6587 0 7.1516-1.299 9.7732-3.7331l-4.7918-3.7045c-1.352.8518-3.0545 1.31-4.9814 1.31z" fill="#34a853"/><path d="m29.4544 15.3191c0-.8851-.1364-1.8383-.3409-2.7234h-13.9773v5.7872h8.0455c-.4023 1.9731-1.4973 3.4901-3.0641 4.4773l4.7918 3.7045c2.7539-2.5559 4.545-6.3632 4.545-11.2456z" fill="#4285f4"/></g></svg>