<svg width="30" height="41" viewBox="0 0 30 41" fill="none" xmlns="http://www.w3.org/2000/svg">
<path d="M19.5251 14.4474L15.5214 18.1724L11.8064 10.6787L13.7289 6.36869C14.2289 5.49369 15.0089 5.50369 15.4964 6.36869L19.5251 14.4474Z" fill="#FFA000"/>
<path d="M11.8063 10.6788L15.5213 18.1726L0.558838 32.0913L11.8063 10.6788Z" fill="#F57F17"/>
<path d="M23.9038 8.75373C24.6188 8.06623 25.3588 8.30123 25.5476 9.27498L29.4426 31.9062L16.5326 39.6562C16.0826 39.9062 14.8826 40.0137 14.8826 40.0137C14.8826 40.0137 13.7901 39.8837 13.3738 39.6387L0.558838 32.0912L23.9038 8.75373Z" fill="#FFCA28"/>
<path d="M11.8063 10.6788L0.560059 32.0913L5.56881 0.797536C5.75381 -0.177464 6.30881 -0.271214 6.80381 0.588786L11.8063 10.6788Z" fill="#FFA000"/>
</svg>
