<svg fill="none" height="39" viewBox="0 0 44 39" width="44" xmlns="http://www.w3.org/2000/svg"><path d="m22.0002 23.3903c2.0607 0 3.7312-1.6706 3.7312-3.7312 0-2.0607-1.6705-3.7312-3.7312-3.7312-2.0606 0-3.7312 1.6705-3.7312 3.7312 0 2.0606 1.6706 3.7312 3.7312 3.7312z" fill="#00d8ff"/><g stroke="#00d8ff"><path d="m22.0003 12.0726c5.0097 0 9.6635.7189 13.1725 1.9269 4.2278 1.4555 6.8272 3.6617 6.8272 5.6594 0 2.0818-2.7549 4.4256-7.295 5.9299-3.4324 1.1372-7.9492 1.7308-12.7047 1.7308-4.8756 0-9.4925-.5572-12.96363-1.7433-4.39158-1.5011-7.03667-3.8752-7.03667-5.9174 0-1.9815 2.48191-4.1706 6.65029-5.6239 3.52201-1.228 8.29081-1.9624 13.34941-1.9624z"/><path d="m15.3961 15.8877c2.5028-4.3397 5.4503-8.01204 8.2498-10.44828 3.3729-2.93531 6.5827-4.08486 8.3132-3.08696 1.8035 1.03999 2.4575 4.59745 1.4925 9.28174-.7289 3.5416-2.4718 7.7509-4.8475 11.8704-2.4358 4.2236-5.2249 7.9448-7.9862 10.3584-3.4942 3.0545-6.8723 4.1598-8.6413 3.1396-1.7166-.9892-2.37307-4.2334-1.5496-8.5705.6958-3.6645 2.4419-8.1623 4.9683-12.5445z"/><path d="m15.4024 23.5157c-2.5098-4.3348-4.2186-8.7233-4.9318-12.3653-.85862-4.38818-.2516-7.74326 1.4774-8.74406 1.8016-1.04304 5.2104.1669 8.7867 3.34244 2.704 2.40084 5.4806 6.01232 7.8632 10.12792 2.4428 4.2196 4.2736 8.4945 4.9858 12.0922.9013 4.5527.1719 8.0313-1.5955 9.0544-1.7149.9928-4.853-.0583-8.1992-2.9378-2.8272-2.4328-5.852-6.192-8.3866-10.5699z"/></g></svg>