<svg width="40" height="30" viewBox="0 0 40 30" fill="none" xmlns="http://www.w3.org/2000/svg">
<path d="M34.4338 17.2145C33.0351 17.2227 31.8244 17.5583 30.8088 18.0583C30.4338 17.3158 30.0588 16.6677 29.9963 16.1833C29.9257 15.6208 29.8401 15.277 29.9257 14.6052C30.0113 13.9333 30.4026 12.9802 30.4026 12.902C30.3951 12.8314 30.3163 12.4877 29.5119 12.4802C28.7076 12.4727 28.0119 12.6364 27.9338 12.8477C27.7943 13.238 27.6819 13.6375 27.5976 14.0433C27.4569 14.7777 25.9882 17.3795 25.1519 18.747C24.8782 18.2158 24.6438 17.747 24.5969 17.372C24.5263 16.8095 24.4407 16.4658 24.5263 15.7939C24.6119 15.122 25.0032 14.1689 25.0032 14.0908C24.9957 14.0202 24.9169 13.6764 24.1126 13.6689C23.3082 13.6614 22.6126 13.8252 22.5344 14.0364C22.4563 14.2477 22.3701 14.7477 22.1982 15.232C22.0338 15.7164 20.0807 20.0608 19.5732 21.1933C19.3151 21.7714 19.0888 22.2327 18.9244 22.5452C18.7601 22.8577 18.9169 22.5689 18.9013 22.6002L18.6826 23.0145V23.022C18.5732 23.2177 18.4557 23.4052 18.4013 23.4052C18.3626 23.4052 18.2838 22.8814 18.4169 22.1627C18.7063 20.6545 19.4094 18.3027 19.4013 18.217C19.4013 18.1783 19.5344 17.7639 18.9482 17.5527C18.3776 17.3414 18.1744 17.6933 18.1276 17.6933C18.0807 17.6933 18.0413 17.8183 18.0413 17.8183C18.0413 17.8183 18.6744 15.1695 16.8301 15.1695C15.6738 15.1695 14.0801 16.4277 13.2907 17.5758L9.30569 19.7558L9.21944 19.662C6.98632 17.277 2.85319 15.5895 3.02507 12.3864C3.08757 11.222 3.49382 8.15141 10.9626 4.43266C17.0801 1.38578 21.9794 2.22141 22.8313 4.08078C24.0426 6.73703 20.2138 11.6745 13.8538 12.387C11.4319 12.6608 10.1582 11.7227 9.83757 11.3714C9.50132 11.0039 9.45444 10.9883 9.32944 11.0589C9.12632 11.1683 9.25132 11.4964 9.32944 11.692C9.51694 12.1845 10.2982 13.0595 11.6263 13.497C12.7907 13.8802 15.6344 14.0908 19.0726 12.7627C22.9244 11.2702 25.9326 7.12953 25.0494 3.66891C24.1507 0.145159 18.3069 -1.01109 12.7826 0.950159C9.49382 2.12078 5.93757 3.94828 3.37507 6.34703C0.321941 9.19078 -0.162434 11.6758 0.0400662 12.707C0.751316 16.387 5.82132 18.7858 7.85257 20.5595L7.57132 20.7158C6.55569 21.2158 2.68819 23.2395 1.71944 25.3802C0.625691 27.802 1.89132 29.5445 2.73507 29.7789C5.34444 30.5058 8.01632 29.2008 9.46194 27.052C10.8994 24.9033 10.7276 22.1145 10.0638 20.8408L10.0401 20.7939L10.8369 20.3252C11.3526 20.0202 11.8607 19.7389 12.3057 19.497C12.0557 20.177 11.8757 20.9814 11.7819 22.1533C11.6726 23.5283 12.2351 25.3095 12.9776 26.0133C13.3057 26.3183 13.6963 26.3258 13.9388 26.3258C14.7982 26.3258 15.1888 25.6145 15.6188 24.7633C16.1501 23.7239 16.6188 22.5208 16.6188 22.5208C16.6188 22.5208 16.0326 25.7789 17.6344 25.7789C18.2207 25.7789 18.8063 25.0208 19.0719 24.6302V24.6377C19.0719 24.6377 19.0876 24.6139 19.1188 24.5595C19.1813 24.4658 19.2126 24.4108 19.2126 24.4108V24.3952C19.4469 23.9889 19.9707 23.0589 20.7519 21.5202C21.7601 19.5358 22.7288 17.0514 22.7288 17.0514C22.7288 17.0514 22.8226 17.6608 23.1119 18.6608C23.2838 19.2545 23.6588 19.9033 23.9482 20.5358L23.5732 21.0514L23.5807 21.0595C23.3807 21.3245 23.1748 21.585 22.9632 21.8408C22.1663 22.7939 21.2132 23.8802 21.0882 24.1927C20.9394 24.5602 20.9707 24.8333 21.2601 25.052C21.4713 25.2083 21.8463 25.2395 22.2444 25.2083C22.9632 25.1614 23.4632 24.9814 23.7132 24.872C24.1642 24.7112 24.5903 24.4876 24.9788 24.2077C25.7601 23.6295 26.2369 22.8089 26.1901 21.7152C26.1663 21.1133 25.9713 20.5195 25.7288 19.957L25.9401 19.6445C27.1744 17.8395 28.1276 15.8552 28.1276 15.8552C28.1276 15.8552 28.2213 16.4645 28.5107 17.4645C28.6594 17.9727 28.9563 18.527 29.2219 19.0739C28.0657 20.0195 27.3388 21.1133 27.0888 21.832C26.6276 23.1602 26.9869 23.762 27.6669 23.9027C27.9719 23.9652 28.4094 23.8245 28.7376 23.6839C29.1438 23.5508 29.6363 23.3245 30.0894 22.9883C30.8707 22.4102 31.6207 21.6052 31.5819 20.5195C31.5582 20.0195 31.4257 19.527 31.2457 19.0583C32.2301 18.652 33.5038 18.4177 35.1207 18.6127C38.5976 19.0189 39.2851 21.1908 39.1519 22.097C39.0188 23.0033 38.2926 23.5033 38.0501 23.6595C37.8076 23.8083 37.7294 23.8627 37.7532 23.972C37.7844 24.1364 37.8938 24.1283 38.1051 24.097C38.3944 24.0502 39.9332 23.3545 39.9957 21.6827C40.0894 19.5339 38.0501 17.1902 34.4332 17.2139L34.4338 17.2145ZM7.61882 26.2552C6.47007 27.5133 4.85319 27.9895 4.16569 27.5833C3.42319 27.1533 3.71257 25.302 5.12694 23.9658C5.98632 23.1533 7.10382 22.4033 7.83819 21.942L8.54944 21.512C8.59632 21.4808 8.62757 21.4652 8.62757 21.4652C8.68257 21.4339 8.74507 21.3945 8.80757 21.3558C9.33132 23.262 8.83132 24.9339 7.62007 26.2545L7.61882 26.2552ZM16.0188 20.5439C15.6201 21.5208 14.7763 24.0283 14.2688 23.8877C13.8313 23.7702 13.5657 21.872 14.1826 19.9964C14.4951 19.0508 15.1594 17.9258 15.5501 17.4883C16.1832 16.7852 16.8707 16.5508 17.0426 16.8395C17.2457 17.2145 16.2688 19.9333 16.0188 20.5433V20.5439ZM22.9488 23.8564C22.7769 23.9427 22.6207 24.0052 22.5501 23.9583C22.4951 23.927 22.6207 23.8095 22.6207 23.8095C22.6207 23.8095 23.4882 22.8795 23.8319 22.4502L24.5119 21.5827V21.6764C24.5119 22.8014 23.4338 23.5514 22.9494 23.8564H22.9488ZM28.2926 22.6377C28.1676 22.5439 28.1832 22.2545 28.6051 21.3483C28.7694 20.9889 29.1444 20.387 29.7926 19.817C29.8707 20.0514 29.9176 20.2783 29.9101 20.4889C29.9019 21.8952 28.9019 22.4189 28.2926 22.6377Z" fill="#CF649A"/>
</svg>
